<svg width="48" height="48" viewBox="0 0 48 48" fill="none" xmlns="http://www.w3.org/2000/svg">
<rect width="48" height="48" rx="24" fill="white"/>
<path d="M5.67025 37.7907V33.3097L14.7482 23.8841C16.332 22.2616 17.4909 20.6778 17.4909 19.094C17.4909 17.3943 16.4093 16.2354 14.5937 16.2354C12.7008 16.2354 11.3488 17.4716 10.6148 19.1713L5.39984 16.1195C7.13817 12.1021 10.7693 10.2092 14.5164 10.2092C19.3451 10.2092 23.6716 13.3769 23.6716 18.8236C23.6716 22.0685 21.9333 24.8498 19.461 27.3221L14.98 31.8418H24.0579V37.7907H5.67025Z" fill="black"/>
<path d="M5.67025 37.7907V33.3097L14.7482 23.8841C16.332 22.2616 17.4909 20.6778 17.4909 19.094C17.4909 17.3943 16.4093 16.2354 14.5937 16.2354C12.7008 16.2354 11.3488 17.4716 10.6148 19.1713L5.39984 16.1195C7.13817 12.1021 10.7693 10.2092 14.5164 10.2092C19.3451 10.2092 23.6716 13.3769 23.6716 18.8236C23.6716 22.0685 21.9333 24.8498 19.461 27.3221L14.98 31.8418H24.0579V37.7907H5.67025Z" fill="url(#paint0_linear_1_17)"/>
<path d="M30.2386 27.863C30.2386 23.3433 36.4194 21.605 36.4194 18.2056C36.4194 16.8535 35.5309 15.9651 33.5608 15.9651C31.4362 15.9651 30.1614 17.3943 29.3888 19.2099L24.0579 16.1582C25.7576 12.1794 29.5047 9.93884 33.7926 9.93884C38.1963 9.93884 42.6001 12.6429 42.6001 17.6648C42.6001 23.4206 36.4194 25.1975 36.4194 27.863H30.2386ZM33.329 38.0611C31.3203 38.0611 29.6592 36.4001 29.6592 34.3913C29.6592 32.3826 31.3203 30.7215 33.329 30.7215C35.3377 30.7215 36.9988 32.3826 36.9988 34.3913C36.9988 36.4001 35.3377 38.0611 33.329 38.0611Z" fill="black"/>
<path d="M30.2386 27.863C30.2386 23.3433 36.4194 21.605 36.4194 18.2056C36.4194 16.8535 35.5309 15.9651 33.5608 15.9651C31.4362 15.9651 30.1614 17.3943 29.3888 19.2099L24.0579 16.1582C25.7576 12.1794 29.5047 9.93884 33.7926 9.93884C38.1963 9.93884 42.6001 12.6429 42.6001 17.6648C42.6001 23.4206 36.4194 25.1975 36.4194 27.863H30.2386ZM33.329 38.0611C31.3203 38.0611 29.6592 36.4001 29.6592 34.3913C29.6592 32.3826 31.3203 30.7215 33.329 30.7215C35.3377 30.7215 36.9988 32.3826 36.9988 34.3913C36.9988 36.4001 35.3377 38.0611 33.329 38.0611Z" fill="url(#paint1_linear_1_17)"/>
<defs>
<linearGradient id="paint0_linear_1_17" x1="25.7447" y1="0.770748" x2="25.7447" y2="48.2529" gradientUnits="userSpaceOnUse">
<stop stop-color="#C4BAD9"/>
<stop offset="1" stop-color="#475270"/>
</linearGradient>
<linearGradient id="paint1_linear_1_17" x1="23.6032" y1="0.500362" x2="23.6032" y2="47.9825" gradientUnits="userSpaceOnUse">
<stop stop-color="#C4BAD9"/>
<stop offset="1" stop-color="#475270"/>
</linearGradient>
</defs>
</svg>
