<svg width="512" height="512" viewBox="0 0 512 512" fill="none" xmlns="http://www.w3.org/2000/svg">
<g clip-path="url(#clip0_1_4)">
<path d="M168.666 274.58C220.367 211.48 326.543 257.914 365.429 210.454C380.895 191.578 378.655 169.01 351.149 146.474C321.487 122.17 287.34 127.542 255.785 144.052L216.269 40.4648C285.513 4.35862 363.457 15.9419 423.321 64.9919C484.803 115.368 515.352 203.495 457.906 273.606C392.064 353.964 285.447 308.07 254.956 345.283L168.666 274.58ZM95.1511 452.311C67.1068 429.332 62.9176 387.14 85.896 359.096C108.874 331.052 151.066 326.862 179.111 349.841C207.155 372.819 211.344 415.011 188.366 443.056C165.387 471.1 123.196 475.289 95.1511 452.311Z" fill="#9996B5" fill-opacity="0.15"/>
<path d="M61.7127 120.897C81.1881 97.1277 121.183 114.619 135.832 96.7411C141.658 89.6307 140.813 81.1297 130.453 72.6404C119.279 63.4853 106.416 65.509 94.5295 71.7281L79.6442 32.7079C105.728 19.1071 135.089 23.4704 157.639 41.947C180.798 60.923 192.306 94.1199 170.667 120.53C145.865 150.8 105.703 133.512 94.2174 147.53L61.7127 120.897ZM34.0206 187.846C23.4565 179.19 21.8785 163.297 30.5342 152.733C39.19 142.169 55.0832 140.591 65.6473 149.247C76.2113 157.902 77.7893 173.796 69.1336 184.36C60.4779 194.924 44.5846 196.502 34.0206 187.846Z" fill="#9996B5" fill-opacity="0.15"/>
<path d="M449.164 412.631C433.157 432.168 400.283 417.791 388.244 432.486C383.455 438.33 384.149 445.317 392.665 452.295C401.849 459.82 412.421 458.156 422.191 453.045L434.426 485.116C412.986 496.295 388.854 492.709 370.32 477.522C351.284 461.926 341.825 434.64 359.611 412.933C379.997 388.053 413.007 402.262 422.447 390.741L449.164 412.631ZM471.925 357.604C480.608 364.718 481.905 377.781 474.791 386.464C467.676 395.147 454.613 396.444 445.93 389.33C437.247 382.215 435.95 369.152 443.065 360.469C450.179 351.786 463.242 350.489 471.925 357.604Z" fill="#9996B5" fill-opacity="0.15"/>
<path d="M315.659 80.8375L384.822 92.1447L328.285 437.955L249.243 425.033L292.13 162.711L228.126 169.492L219.924 98.6624L315.659 80.8375Z" fill="url(#paint0_linear_1_4)"/>
<path d="M76.1533 368.39L71.1357 334.166L129.914 252.012C140.194 237.847 147.272 224.453 145.498 212.357C143.595 199.375 134.036 191.736 120.17 193.769C105.713 195.888 96.7709 206.843 93.0685 220.646L49.8217 203.178C58.5997 170.548 84.2134 152.025 112.832 147.83C149.711 142.423 186.302 161.771 192.401 203.371C196.034 228.154 185.872 251.343 169.758 272.993L140.595 312.53L209.928 302.365L216.59 347.8L76.1533 368.39Z" fill="black"/>
<path d="M76.1533 368.39L71.1357 334.166L129.914 252.012C140.194 237.847 147.272 224.453 145.498 212.357C143.595 199.375 134.036 191.736 120.17 193.769C105.713 195.888 96.7709 206.843 93.0685 220.646L49.8217 203.178C58.5997 170.548 84.2134 152.025 112.832 147.83C149.711 142.423 186.302 161.771 192.401 203.371C196.034 228.154 185.872 251.343 169.758 272.993L140.595 312.53L209.928 302.365L216.59 347.8L76.1533 368.39Z" fill="url(#paint1_linear_1_4)"/>
<path d="M428.896 377.926C441.857 380.907 452.103 389.915 453.652 403.993C456.112 426.344 439.974 439.872 420.38 442.029C404.996 443.722 390.312 438.434 382.425 424.172L401.176 410.356C404.233 416.777 409.035 420.362 417.888 419.387C427.467 418.333 431.117 412.79 430.43 406.549C429.743 400.308 424.975 395.692 415.396 396.746L410.607 397.273L400.3 385.04L416.16 359.644L379.005 363.733L376.609 341.963L441.921 334.774L443.997 353.642L428.896 377.926Z" fill="black"/>
<path d="M428.896 377.926C441.857 380.907 452.103 389.915 453.652 403.993C456.112 426.344 439.974 439.872 420.38 442.029C404.996 443.722 390.312 438.434 382.425 424.172L401.176 410.356C404.233 416.777 409.035 420.362 417.888 419.387C427.467 418.333 431.117 412.79 430.43 406.549C429.743 400.308 424.975 395.692 415.396 396.746L410.607 397.273L400.3 385.04L416.16 359.644L379.005 363.733L376.609 341.963L441.921 334.774L443.997 353.642L428.896 377.926Z" fill="url(#paint2_linear_1_4)"/>
</g>
<defs>
<linearGradient id="paint0_linear_1_4" x1="305.038" y1="79.1011" x2="248.502" y2="424.912" gradientUnits="userSpaceOnUse">
<stop stop-color="#C4BAD9"/>
<stop offset="1" stop-color="#475270"/>
</linearGradient>
<linearGradient id="paint1_linear_1_4" x1="114.454" y1="147.592" x2="145.339" y2="358.246" gradientUnits="userSpaceOnUse">
<stop stop-color="#C4BAD9"/>
<stop offset="1" stop-color="#475270"/>
</linearGradient>
<linearGradient id="paint2_linear_1_4" x1="409.7" y1="338.321" x2="421.106" y2="441.949" gradientUnits="userSpaceOnUse">
<stop stop-color="#C4BAD9"/>
<stop offset="1" stop-color="#475270"/>
</linearGradient>
<clipPath id="clip0_1_4">
<rect width="512" height="512" fill="white"/>
</clipPath>
</defs>
</svg>
