<svg width="142" height="63" viewBox="0 0 142 63" fill="none" xmlns="http://www.w3.org/2000/svg">
<path d="M6.23919 18.1758C6.23919 13.5927 12.4784 11.83 12.4784 8.38285C12.4784 7.01184 11.5815 6.11089 9.59275 6.11089C7.44803 6.11089 6.1612 7.56024 5.3813 9.40132L0 6.30675C1.71578 2.27206 5.49828 9.15527e-05 9.82672 9.15527e-05C14.2721 9.15527e-05 18.7176 2.74212 18.7176 7.83445C18.7176 13.671 12.4784 15.4729 12.4784 18.1758H6.23919ZM9.35878 28.5172C7.33104 28.5172 5.65426 26.8328 5.65426 24.7958C5.65426 22.7589 7.33104 21.0745 9.35878 21.0745C11.3865 21.0745 13.0633 22.7589 13.0633 24.7958C13.0633 26.8328 11.3865 28.5172 9.35878 28.5172Z" fill="#9996B5" fill-opacity="0.02"/>
<path d="M6.23919 52.6586C6.23919 48.0756 12.4784 46.3128 12.4784 42.8657C12.4784 41.4947 11.5815 40.5937 9.59275 40.5937C7.44803 40.5937 6.1612 42.0431 5.3813 43.8842L0 40.7896C1.71578 36.7549 5.49828 34.4829 9.82672 34.4829C14.2721 34.4829 18.7176 37.225 18.7176 42.3173C18.7176 48.1539 12.4784 49.9558 12.4784 52.6586H6.23919ZM9.35878 63C7.33104 63 5.65426 61.3156 5.65426 59.2787C5.65426 57.2417 7.33104 55.5574 9.35878 55.5574C11.3865 55.5574 13.0633 57.2417 13.0633 59.2787C13.0633 61.3156 11.3865 63 9.35878 63Z" fill="#9996B5" fill-opacity="0.02"/>
<path d="M55.5522 18.1757C55.5522 13.5926 61.7914 11.8299 61.7914 8.38276C61.7914 7.01175 60.8945 6.1108 58.9057 6.1108C56.761 6.1108 55.4742 7.56015 54.6943 9.40123L49.313 6.30666C51.0288 2.27196 54.8113 0 59.1397 0C63.5851 0 68.0306 2.74202 68.0306 7.83436C68.0306 13.671 61.7914 15.4729 61.7914 18.1757H55.5522ZM58.6718 28.5171C56.644 28.5171 54.9673 26.8327 54.9673 24.7957C54.9673 22.7588 56.644 21.0744 58.6718 21.0744C60.6995 21.0744 62.3763 22.7588 62.3763 24.7957C62.3763 26.8327 60.6995 28.5171 58.6718 28.5171Z" fill="#9996B5" fill-opacity="0.02"/>
<path d="M55.5522 52.6586C55.5522 48.0756 61.7914 46.3128 61.7914 42.8657C61.7914 41.4947 60.8945 40.5937 58.9057 40.5937C56.761 40.5937 55.4742 42.0431 54.6943 43.8842L49.313 40.7896C51.0288 36.7549 54.8113 34.4829 59.1397 34.4829C63.5851 34.4829 68.0306 37.225 68.0306 42.3173C68.0306 48.1539 61.7914 49.9558 61.7914 52.6586H55.5522ZM58.6718 63C56.644 63 54.9673 61.3156 54.9673 59.2787C54.9673 57.2417 56.644 55.5574 58.6718 55.5574C60.6995 55.5574 62.3763 57.2417 62.3763 59.2787C62.3763 61.3156 60.6995 63 58.6718 63Z" fill="#9996B5" fill-opacity="0.02"/>
<path d="M104.865 18.1757C104.865 13.5926 111.104 11.8299 111.104 8.38276C111.104 7.01175 110.207 6.1108 108.219 6.1108C106.074 6.1108 104.787 7.56015 104.007 9.40123L98.6259 6.30666C100.342 2.27196 104.124 0 108.453 0C112.898 0 117.343 2.74202 117.343 7.83436C117.343 13.671 111.104 15.4729 111.104 18.1757H104.865ZM107.985 28.5171C105.957 28.5171 104.28 26.8327 104.28 24.7957C104.28 22.7588 105.957 21.0744 107.985 21.0744C110.012 21.0744 111.689 22.7588 111.689 24.7957C111.689 26.8327 110.012 28.5171 107.985 28.5171Z" fill="#9996B5" fill-opacity="0.02"/>
<path d="M104.865 52.6586C104.865 48.0756 111.104 46.3128 111.104 42.8657C111.104 41.4947 110.207 40.5937 108.219 40.5937C106.074 40.5937 104.787 42.0431 104.007 43.8842L98.6259 40.7896C100.342 36.7549 104.124 34.4829 108.453 34.4829C112.898 34.4829 117.343 37.225 117.343 42.3173C117.343 48.1539 111.104 49.9558 111.104 52.6586H104.865ZM107.985 63C105.957 63 104.28 61.3156 104.28 59.2787C104.28 57.2417 105.957 55.5574 107.985 55.5574C110.012 55.5574 111.689 57.2417 111.689 59.2787C111.689 61.3156 110.012 63 107.985 63Z" fill="#9996B5" fill-opacity="0.02"/>
<path d="M37.1348 10.3414C37.1348 14.9244 30.8956 16.6872 30.8956 20.1343C30.8956 21.5053 31.7925 22.4063 33.7813 22.4063C35.926 22.4063 37.2128 20.9569 37.9927 19.1158L43.374 22.2104C41.6582 26.2451 37.8757 28.5171 33.5473 28.5171C29.1019 28.5171 24.6565 25.775 24.6565 20.6827C24.6565 14.8461 30.8956 13.0442 30.8956 10.3414H37.1348ZM34.0152 7.5253e-07C36.043 7.5253e-07 37.7198 1.68439 37.7198 3.72132C37.7198 5.75825 36.043 7.44264 34.0152 7.44264C31.9875 7.44264 30.3107 5.75825 30.3107 3.72132C30.3107 1.68439 31.9875 7.5253e-07 34.0152 7.5253e-07Z" fill="#9996B5" fill-opacity="0.02"/>
<path d="M37.1348 44.8243C37.1348 49.4074 30.8956 51.1701 30.8956 54.6172C30.8956 55.9883 31.7925 56.8892 33.7813 56.8892C35.926 56.8892 37.2128 55.4398 37.9927 53.5988L43.374 56.6933C41.6582 60.728 37.8757 63 33.5473 63C29.1019 63 24.6565 60.258 24.6565 55.1656C24.6565 49.329 30.8956 47.5271 30.8956 44.8243H37.1348ZM34.0152 34.4829C36.043 34.4829 37.7198 36.1673 37.7198 38.2043C37.7198 40.2412 36.043 41.9256 34.0152 41.9256C31.9875 41.9256 30.3107 40.2412 30.3107 38.2043C30.3107 36.1673 31.9875 34.4829 34.0152 34.4829Z" fill="#9996B5" fill-opacity="0.02"/>
<path d="M86.4478 10.3414C86.4478 14.9244 80.2086 16.6872 80.2086 20.1343C80.2086 21.5053 81.1055 22.4063 83.0943 22.4063C85.239 22.4063 86.5258 20.9569 87.3057 19.1158L92.687 22.2104C90.9712 26.2451 87.1887 28.5171 82.8603 28.5171C78.4149 28.5171 73.9694 25.775 73.9694 20.6827C73.9694 14.8461 80.2086 13.0442 80.2086 10.3414H86.4478ZM83.3282 7.5253e-07C85.356 7.5253e-07 87.0327 1.68439 87.0327 3.72132C87.0327 5.75825 85.356 7.44264 83.3282 7.44264C81.3005 7.44264 79.6237 5.75825 79.6237 3.72132C79.6237 1.68439 81.3005 7.5253e-07 83.3282 7.5253e-07Z" fill="#9996B5" fill-opacity="0.02"/>
<path d="M86.4478 44.8243C86.4478 49.4074 80.2086 51.1701 80.2086 54.6172C80.2086 55.9883 81.1055 56.8892 83.0943 56.8892C85.239 56.8892 86.5258 55.4398 87.3057 53.5988L92.687 56.6933C90.9712 60.728 87.1887 63 82.8603 63C78.4149 63 73.9694 60.258 73.9694 55.1656C73.9694 49.329 80.2086 47.5271 80.2086 44.8243H86.4478ZM83.3282 34.4829C85.356 34.4829 87.0327 36.1673 87.0327 38.2043C87.0327 40.2412 85.356 41.9256 83.3282 41.9256C81.3005 41.9256 79.6237 40.2412 79.6237 38.2043C79.6237 36.1673 81.3005 34.4829 83.3282 34.4829Z" fill="#9996B5" fill-opacity="0.02"/>
<path d="M135.761 10.3414C135.761 14.9244 129.522 16.6872 129.522 20.1343C129.522 21.5053 130.419 22.4063 132.407 22.4063C134.552 22.4063 135.839 20.9569 136.619 19.1158L142 22.2104C140.284 26.2451 136.502 28.5171 132.173 28.5171C127.728 28.5171 123.282 25.775 123.282 20.6827C123.282 14.8461 129.522 13.0442 129.522 10.3414H135.761ZM132.641 7.5253e-07C134.669 7.5253e-07 136.346 1.68439 136.346 3.72132C136.346 5.75825 134.669 7.44264 132.641 7.44264C130.613 7.44264 128.937 5.75825 128.937 3.72132C128.937 1.68439 130.613 7.5253e-07 132.641 7.5253e-07Z" fill="#9996B5" fill-opacity="0.02"/>
<path d="M135.761 44.8243C135.761 49.4074 129.522 51.1701 129.522 54.6172C129.522 55.9883 130.419 56.8892 132.407 56.8892C134.552 56.8892 135.839 55.4398 136.619 53.5988L142 56.6933C140.284 60.728 136.502 63 132.173 63C127.728 63 123.282 60.258 123.282 55.1656C123.282 49.329 129.522 47.5271 129.522 44.8243H135.761ZM132.641 34.4829C134.669 34.4829 136.346 36.1673 136.346 38.2043C136.346 40.2412 134.669 41.9256 132.641 41.9256C130.613 41.9256 128.937 40.2412 128.937 38.2043C128.937 36.1673 130.613 34.4829 132.641 34.4829Z" fill="#9996B5" fill-opacity="0.02"/>
</svg>
